<svg width="19" height="19" viewBox="0 0 19 19" fill="none" xmlns="http://www.w3.org/2000/svg">
<path fill-rule="evenodd" clip-rule="evenodd" d="M13.9296 0.796814H5.92963C3.16821 0.796814 0.929626 3.03539 0.929626 5.79681V13.7968C0.929626 16.5582 3.16821 18.7968 5.92963 18.7968H13.9296C16.691 18.7968 18.9296 16.5582 18.9296 13.7968V5.79681C18.9296 3.03539 16.691 0.796814 13.9296 0.796814ZM17.1796 13.7968C17.1741 15.5894 15.7222 17.0413 13.9296 17.0468H5.92963C4.13698 17.0413 2.68512 15.5894 2.67963 13.7968V5.79681C2.68512 4.00416 4.13698 2.5523 5.92963 2.54681H13.9296C15.7222 2.5523 17.1741 4.00416 17.1796 5.79681V13.7968ZM14.6796 6.04681C15.2319 6.04681 15.6796 5.59909 15.6796 5.04681C15.6796 4.49453 15.2319 4.04681 14.6796 4.04681C14.1273 4.04681 13.6796 4.49453 13.6796 5.04681C13.6796 5.59909 14.1273 6.04681 14.6796 6.04681ZM9.92963 5.29681C7.44435 5.29681 5.42963 7.31153 5.42963 9.79681C5.42963 12.2821 7.44435 14.2968 9.92963 14.2968C12.4149 14.2968 14.4296 12.2821 14.4296 9.79681C14.4323 8.60251 13.959 7.45638 13.1145 6.61189C12.27 5.7674 11.1239 5.29415 9.92963 5.29681ZM7.17963 9.79681C7.17963 11.3156 8.41083 12.5468 9.92963 12.5468C11.4484 12.5468 12.6796 11.3156 12.6796 9.79681C12.6796 8.27801 11.4484 7.04681 9.92963 7.04681C8.41083 7.04681 7.17963 8.27801 7.17963 9.79681Z" fill="black"/>
</svg>
