<svg width="18" height="11" viewBox="0 0 18 11" fill="none" xmlns="http://www.w3.org/2000/svg">
<path d="M16.8232 9.17669L16.8232 9.17671L16.4697 9.53029C16.4696 9.5303 16.4696 9.5303 16.4696 9.53031C16.372 9.62792 16.2137 9.62792 16.1161 9.53029C16.1161 9.53029 16.1161 9.53029 16.1161 9.53029L9.35355 2.76769L8.99999 2.41413L8.64644 2.76769L1.88384 9.53029C1.7862 9.62793 1.62798 9.62793 1.53034 9.53029L1.17674 9.17669C1.07911 9.07905 1.07911 8.92083 1.17674 8.82319L8.82324 1.17669C8.92088 1.07906 9.0791 1.07906 9.17674 1.17669L16.8232 8.82319C16.8232 8.82319 16.8232 8.82319 16.8232 8.82319C16.9208 8.92083 16.9208 9.07906 16.8232 9.17669Z" fill="black" stroke="black"/>
</svg>
